<svg width="184" height="52" xmlns="http://www.w3.org/2000/svg">

 <g>
  <title>background</title>
  <rect fill="none" id="canvas_background" height="402" width="582" y="-1" x="-1"/>
 </g>
 <g>
  <title>Layer 1</title>
  <path id="svg_1" fill="#ffffff" d="m82.5675,37.0001c-1.401,0 -2.7619,-0.2396 -4.0428,-0.6788c-1.281,-0.4792 -2.4018,-1.158 -3.3624,-2.1164c-0.9607,-0.9583 -1.7213,-2.1163 -2.3217,-3.5538c-0.5604,-1.3975 -0.8406,-3.0746 -0.8406,-4.9514c0,-1.8767 0.2802,-3.5138 0.8806,-4.9513c0.6005,-1.4375 1.401,-2.6355 2.3617,-3.6337c0.9607,-0.9983 2.1215,-1.757 3.4024,-2.2761c1.281,-0.519 2.6419,-0.7986 4.0429,-0.7986c1.4811,0 2.802,0.2796 3.9629,0.8785c1.1608,0.559 2.1215,1.2778 2.922,2.0764l-3.0822,3.7535c-0.5604,-0.4792 -1.1208,-0.8785 -1.6812,-1.158c-0.5604,-0.3195 -1.2408,-0.4792 -2.0014,-0.4792c-0.6404,0 -1.2809,0.1597 -1.8413,0.4392c-0.5604,0.2796 -1.0808,0.7188 -1.5211,1.2778c-0.4403,0.559 -0.8006,1.1979 -1.0407,1.9965c-0.2802,0.7987 -0.4003,1.6771 -0.4003,2.6754c0,2.0764 0.4403,3.6736 1.3209,4.7916c0.8807,1.1181 2.0415,1.6771 3.4425,1.6771c0.8806,0 1.6412,-0.1996 2.3216,-0.559c0.6805,-0.3594 1.2409,-0.8385 1.7213,-1.3576l3.0822,3.6736c-0.9607,1.0781 -2.0415,1.9166 -3.2824,2.4357c-1.2409,0.5591 -2.6018,0.8386 -4.0429,0.8386z"/>
  <path stroke="#ffffff" id="svg_2" fill="#ffffff" d="m104.984,36.6007l-6.0048,0l6.7648,-22.1215l7.085,0l6.765,22.1215l-6.204,0c0,0 -3.883,-16.651 -4.163,-17.769l-0.121,0c-0.28,1.118 -4.122,17.769 -4.122,17.769z"/>
  <path id="svg_3" fill="#ffffff" d="m137.567,37c-1.401,0 -2.842,-0.2396 -4.363,-0.7587c-1.481,-0.5191 -2.842,-1.3177 -4.043,-2.3958l3.362,-4.033c0.801,0.6389 1.641,1.158 2.562,1.5573c0.921,0.3993 1.801,0.5989 2.602,0.5989c0.881,0 1.521,-0.1198 1.921,-0.3993c0.401,-0.2795 0.601,-0.6389 0.601,-1.158c0,-0.2795 -0.08,-0.4791 -0.2,-0.6788c-0.12,-0.1996 -0.321,-0.3594 -0.601,-0.5191c-0.28,-0.1597 -0.56,-0.3194 -0.92,-0.4791c-0.361,-0.1598 -0.801,-0.3195 -1.281,-0.4792l-2.762,-1.158c-0.601,-0.2396 -1.161,-0.5191 -1.722,-0.9184c-0.56,-0.3594 -1.04,-0.7986 -1.441,-1.3177c-0.4,-0.5191 -0.72,-1.0781 -0.96,-1.7569c-0.24,-0.6389 -0.361,-1.3976 -0.361,-2.1962c0,-0.9584 0.201,-1.8368 0.601,-2.6754c0.4,-0.8385 0.961,-1.5573 1.721,-2.1961c0.721,-0.6389 1.601,-1.1181 2.602,-1.4775c1.001,-0.3593 2.121,-0.559 3.322,-0.559c1.281,0 2.562,0.2396 3.883,0.7188c1.321,0.4791 2.482,1.2378 3.483,2.2361l-2.922,3.6736c-0.761,-0.5191 -1.482,-0.9184 -2.162,-1.198c-0.681,-0.2795 -1.441,-0.3993 -2.282,-0.3993c-0.72,0 -1.281,0.1198 -1.721,0.3594c-0.4,0.2396 -0.6,0.6389 -0.6,1.1181c0,0.5191 0.28,0.9184 0.88,1.1979c0.561,0.2795 1.401,0.5989 2.402,0.9982l2.682,1.0382c1.401,0.5591 2.442,1.3177 3.202,2.2761c0.761,0.9583 1.121,2.2361 1.121,3.7934c0,0.9184 -0.2,1.8368 -0.56,2.6753c-0.401,0.8785 -0.961,1.5972 -1.682,2.2761c-0.72,0.6788 -1.641,1.1579 -2.722,1.5572c-1,0.4792 -2.241,0.6789 -3.642,0.6789z"/>
  <path id="svg_4" fill="#ffffff" d="m162.185,36.6007l0,-17.21l-5.885,0l0,-4.9115l17.613,0l0,4.9115l-5.884,0l0,17.21l-5.844,0z"/>
  <path id="svg_5" fill="#ffffff" d="m179.237,17.5538l0,-2.3958l-0.921,0l0,-0.5191l2.442,0l0,0.5191l-0.921,0l0,2.3958l-0.6,0zm1.921,0l0,-2.9149l0.68,0l0.441,1.0781l0.28,0.7188l0.04,0l0.28,-0.7188l0.44,-1.0781l0.681,0l0,2.9149l-0.56,0l0,-1.2777l0.08,-0.9983l-0.04,0l-0.681,1.8368l-0.44,0l-0.681,-1.8368l-0.04,0l0.08,0.9983l0,1.2777l-0.56,0z"/>
  <path id="svg_6" fill="#ffffff" d="m15.0389,52c-0.1653,0 -0.2975,0 -0.4628,-0.0324c-1.2559,-0.2266 -4.72644,-2.0399 -9.51905,-13.6962c-3.00781,-7.3175 -5.05705,-15.056 -5.05705,-19.2328c0,-10.49069 8.72587,-19.0386 19.4349,-19.0386c5.3214,0 11.37,2.0722 16.1626,5.5691c1.4188,1.03143 2.6641,2.13361 3.7262,3.28884c0.6455,0.57279 1.244,1.16556 1.794,1.77566l0.0673,0.0675c0.1764,0.1605 0.3492,0.3228 0.5184,0.4868c0.3695,0.3221 0.7245,0.6524 1.0646,0.9904l0.068,0.0608c0.2466,0.2219 0.4864,0.4479 0.7195,0.6779c0.1705,0.1501 0.3384,0.3028 0.5036,0.4581c4.2403,3.4964 6.9409,8.7313 6.9409,14.5676c0,10.4906 -8.7258,19.0386 -19.4349,19.0386c-0.1465,0 -0.2927,-0.0016 -0.4385,-0.0048c-0.4111,0.1046 -0.8269,0.2034 -1.2471,0.2962c-0.5465,0.1338 -1.093,0.2062 -1.6394,0.2383l-0.0463,0.0207c-0.7062,0.334 -1.4482,0.545 -2.2129,0.6329c-0.6742,0.39 -1.38,0.6231 -2.1271,0.6993c-0.6058,0.3692 -1.2499,0.5845 -1.939,0.6326c-0.5498,0.3564 -1.1307,0.5522 -1.7475,0.5873c-0.5466,0.4069 -1.141,0.6105 -1.7732,0.6207c-0.5174,0.432 -1.0879,0.6479 -1.7026,0.6479c-0.016,0 -0.0323,-0.0002 -0.0488,-0.0006c-0.4838,0.4322 -1.0172,0.6482 -1.6038,0.6482zm16.008,-5.4464c-0.2097,-0.0055 -0.4187,-0.0145 -0.6267,-0.0267c9.1988,-4.1976 18.7289,-9.3776 18.7289,-20.8183c0,-2.4154 -0.5206,-4.7783 -1.5139,-6.9876c1.2919,2.461 2.0191,5.2113 2.0097,8.0885c0,5.1805 -1.9832,9.6164 -5.9165,13.2428c-3.2387,2.9632 -7.579,5.2071 -12.6815,6.5013zm1.7073,-0.0293c9.9261,-0.6034 17.8161,-8.7087 17.8161,-18.5816c0,-3.2173 -0.8379,-6.2469 -2.311,-8.8904c1.163,2.3913 1.8153,5.0328 1.8153,7.7896c0,5.2129 -2.0824,9.8754 -6.0487,13.5342c-2.9282,2.7077 -6.7855,4.7939 -11.2717,6.1482zm8.2851,-34.7159c-2.7908,-1.579 -6.0269,-2.48336 -9.4742,-2.48336c-10.4776,0 -19.0051,8.35366 -19.0051,18.61766c0,6.2433 3.1551,11.7798 7.9851,15.1594c4.7372,-8.1498 10.1352,-10.7135 14.6361,-12.8511l0.0197,-0.0095l0.0432,-0.0204c4.7041,-2.2234 8.0877,-3.8227 8.0877,-11.1825c-0.0084,-2.5421 -0.8563,-4.9908 -2.2925,-7.2302zm-1.9527,-1.4185c-2.3151,-0.95664 -4.8569,-1.4858 -7.5215,-1.4858c-10.709,0 -19.4348,8.5479 -19.4348,19.0386c0,6.3968 3.2443,12.0712 8.2043,15.5259c-0.1605,0.2832 -0.3204,0.5729 -0.4793,0.8693c-0.1213,-0.0903 -0.2394,-0.1806 -0.3543,-0.2706c-4.9909,-3.8855 -8.4615,-10.9763 -8.4615,-17.2254c0,-10.264 8.5276,-18.6177 19.0052,-18.6177c3.2358,0 6.3188,0.78709 9.0419,2.1657zm-18.4222,33.3034c-0.1616,0.2872 -0.3224,0.5811 -0.4823,0.8821c0.34,0.2409 0.7023,0.4792 1.0856,0.7076c0.1823,-0.2997 0.3654,-0.5922 0.549,-0.8778c-0.393,-0.2244 -0.7773,-0.4619 -1.1523,-0.7119zm1.4984,0.9048c-0.1856,0.2867 -0.3706,0.5805 -0.5549,0.8817c0.3428,0.1925 0.7012,0.3761 1.0739,0.5459c0.2085,-0.291 0.4174,-0.5748 0.6264,-0.8519c-0.389,-0.1798 -0.771,-0.3719 -1.1454,-0.5757zm1.4069,0.2328c-0.3996,-0.1822 -0.7917,-0.3777 -1.1757,-0.5859c4.6247,-6.9818 9.5932,-9.6498 13.7324,-11.8664c4.9248,-2.6227 8.4945,-4.533 8.4945,-12.2067c0,-1.8816 -0.4117,-3.6974 -1.1492,-5.411c1.0812,2.0863 1.645,4.2851 1.645,6.5118c0,7.5766 -3.6358,9.746 -8.6598,12.7248l-0.0619,0.037c-3.7814,2.2606 -8.3496,4.9916 -12.8253,10.7964zm0.1144,0.5118c-0.2083,0.2759 -0.4163,0.5586 -0.6238,0.8484c0.3313,0.1389 0.6733,0.2662 1.0252,0.379c0.2324,-0.2684 0.4648,-0.5306 0.6971,-0.7867c-0.3716,-0.1362 -0.7379,-0.2832 -1.0985,-0.4407zm1.4065,0.1048c-0.3872,-0.1379 -0.7685,-0.2879 -1.1436,-0.4493c4.418,-5.7247 8.9447,-8.418 12.6879,-10.6451l0.0534,-0.0318c5.1562,-3.0436 8.858,-5.2453 8.858,-13.0809c0,-1.6857 -0.314,-3.3561 -0.9222,-4.9749c0.8842,1.9121 1.385,3.9756 1.385,6.1404c0,7.9005 -3.9663,10.4583 -9.4861,13.9552c-3.3413,2.1277 -7.3629,4.6918 -11.4324,9.0864zm0.1224,0.4879c-0.2281,0.2499 -0.4562,0.5056 -0.6842,0.7674c0.3008,0.0837 0.6085,0.1565 0.9226,0.2164c0.2507,-0.2304 0.5009,-0.4557 0.7503,-0.6764c-0.3333,-0.0939 -0.6629,-0.1966 -0.9887,-0.3074zm1.3678,-0.0248c-0.3559,-0.0949 -0.7077,-0.1997 -1.055,-0.3141c3.9124,-4.1942 7.8081,-6.6948 11.0538,-8.7782l0.0009,-0.0005l0.2069,-0.1329c5.6189,-3.5616 9.6514,-6.1519 9.6514,-14.3113c0,-1.675 -0.2955,-3.2916 -0.8338,-4.827c0.849,1.9571 1.3039,3.9847 1.2965,5.9603c0,8.5155 -4.6273,11.5267 -11.0726,15.7036c-2.8446,1.822 -5.9835,3.8657 -9.2481,6.7001zm0.1342,0.4696c-0.236,0.2058 -0.4725,0.4158 -0.7096,0.6302c0.2694,0.0372 0.5431,0.0648 0.821,0.0815c0.2554,-0.173 0.5095,-0.3436 0.7624,-0.5119c-0.2937,-0.0602 -0.585,-0.1268 -0.8738,-0.1998zm1.3754,-0.1318c-0.3313,-0.0603 -0.6595,-0.1289 -0.9846,-0.2058c3.0256,-2.5877 5.95,-4.5056 8.6053,-6.2469l0.3492,-0.2291l0.0961,-0.0628c6.4945,-4.2411 11.1748,-7.2976 11.1748,-15.9969c0,-2.3271 -0.5397,-4.6184 -1.5745,-6.7801c1.3806,2.464 2.1034,5.1468 2.1034,7.8809c0,9.5446 -5.9736,13.1727 -14.2272,18.1854l-0.0185,0.0113c-1.8078,1.0823 -3.6346,2.2019 -5.524,3.444zm0.5891,0.0977c1.5334,-1.0037 3.0376,-1.9153 4.5049,-2.8044c0.2102,-0.1274 0.4197,-0.2543 0.6283,-0.3811l0.035,-0.0211c8.0483,-4.8793 14.409,-8.7353 14.409,-18.5318c0,-2.1636 -0.4418,-4.2905 -1.2904,-6.3069c1.1512,2.325 1.7531,4.8396 1.7531,7.4078c0,5.3425 -1.9501,9.5517 -6.1808,13.2105c-3.4051,2.9552 -8.0248,5.3023 -12.9322,7.5431c-0.3113,-0.0314 -0.6203,-0.0701 -0.9269,-0.1161zm-0.5186,0.3423c0.234,0.0407 0.4694,0.0773 0.7061,0.1097c-0.2096,0.0948 -0.4197,0.1895 -0.6301,0.284c-0.2369,0.0176 -0.4714,0.027 -0.7033,0.0286c0.2096,-0.1427 0.4187,-0.2834 0.6273,-0.4223zm-6.1143,-2.6365c-0.4005,-0.228 -0.7918,-0.4699 -1.1731,-0.7251c4.6514,-8.057 9.9811,-10.5872 14.4237,-12.6963l0.069,-0.0328l0.001,-0.0004c4.6599,-2.2016 8.3613,-3.9503 8.3613,-11.5587c0,-1.2798 -0.1997,-2.5551 -0.59,-3.8094c0.6996,1.6463 1.0795,3.3104 1.0858,4.9102c0,7.4148 -3.4705,9.2927 -8.2632,11.8506l-0.0545,0.0294c-4.1676,2.2441 -9.2023,4.9549 -13.86,12.0325zm7.9981,-36.24864c2.8197,0 5.5238,0.58568 7.9827,1.63324c-2.9409,-1.51482 -6.2288,-2.34555 -9.5031,-2.34555c-10.4776,0 -19.00516,8.35365 -19.00516,18.61765c0,6.8607 4.44536,15.7137 9.74026,19.7811c0.132,-0.2644 0.2647,-0.5238 0.398,-0.7784c-0.1407,-0.1039 -0.281,-0.2107 -0.4209,-0.3203c-5.1561,-4.0473 -8.6267,-11.1058 -8.6267,-17.5491c0,-10.4907 8.7259,-19.03864 19.4349,-19.03864zm-10.2564,37.53174c0.0658,-0.1301 0.1318,-0.2588 0.1979,-0.3864c0.3528,0.2484 0.7083,0.4793 1.0659,0.6924c-0.1491,0.2505 -0.2977,0.5059 -0.4457,0.7662l-0.0612,-0.0365c-0.0726,-0.0437 -0.1452,-0.0884 -0.2179,-0.1341c-0.2478,-0.1563 -0.4943,-0.3235 -0.7392,-0.5013c0.0665,-0.1346 0.1333,-0.2681 0.2002,-0.4003zm1.1563,1.2658c0.1484,-0.2595 0.2973,-0.5138 0.4467,-0.7632c0.3464,0.1948 0.6947,0.3731 1.0447,0.5346c-0.1645,0.2343 -0.3287,0.473 -0.4927,0.7164c-0.3321,-0.1414 -0.6652,-0.304 -0.9987,-0.4878zm1.385,0.6429c0.161,-0.2391 0.3221,-0.4738 0.4836,-0.7039c0.3252,0.1385 0.6516,0.2627 0.979,0.3725c-0.1748,0.2061 -0.3497,0.4158 -0.5244,0.6293c-0.3112,-0.0801 -0.6241,-0.1795 -0.9382,-0.2979zm1.4002,0.4031c0.1665,-0.2023 0.3331,-0.4011 0.4998,-0.5966c0.2815,0.0831 0.5637,0.1555 0.8464,0.2172c-0.1742,0.1632 -0.3488,0.3288 -0.5236,0.497c-0.2724,-0.024 -0.5467,-0.0632 -0.8226,-0.1176zm1.4302,0.1456c0.1504,-0.1423 0.3006,-0.2827 0.4507,-0.4213c0.2229,0.0379 0.446,0.0691 0.6692,0.0936l-0.0032,0.0022c-0.1575,0.1086 -0.3166,0.2082 -0.4773,0.2987c-0.1003,0.0088 -0.2009,0.0155 -0.3018,0.02c-0.1121,0.005 -0.2247,0.0072 -0.3376,0.0068zm1.6758,-0.2001l0.1068,-0.0746c0.0489,0.0025 0.0977,0.0046 0.1466,0.0065c-0.0282,0.0081 -0.0563,0.0161 -0.0845,0.0238c-0.0562,0.0155 -0.1125,0.0303 -0.1689,0.0443zm10.2585,-39.06178c-2.7185,-1.20708 -5.6661,-1.86051 -8.6031,-1.86051c-10.7089,0 -19.4348,8.54789 -19.4348,19.03859c0,7.1461 4.4986,16.0491 10.0017,20.1892c-0.1192,0.2447 -0.2379,0.4935 -0.356,0.7466c-5.8236,-4.3262 -10.70341,-15.2457 -10.70341,-22.0367c0,-10.264 8.52761,-18.61767 19.00521,-18.61767c3.4443,0 6.9484,0.89279 10.0904,2.54049zm-17.7041,37.61048c-0.041,0.0851 -0.0819,0.1707 -0.1227,0.2569c-0.0765,0.1611 -0.1527,0.324 -0.2286,0.4886c0.3208,0.2228 0.6441,0.4252 0.9694,0.6055c0.0857,-0.1603 0.1716,-0.3187 0.2576,-0.4755c0.0416,-0.0758 0.0833,-0.1511 0.1249,-0.2261c-0.0488,-0.0284 -0.0976,-0.0574 -0.1464,-0.0867c-0.0605,-0.0363 -0.121,-0.0733 -0.1815,-0.1109c-0.1042,-0.0658 -0.2081,-0.1333 -0.3117,-0.2025c-0.1207,-0.0808 -0.2411,-0.1639 -0.361,-0.2493zm1.3392,0.8402c-0.1269,0.2267 -0.2533,0.4571 -0.3794,0.6914c0.3192,0.16 0.6342,0.2951 0.945,0.4051c0.1347,-0.2112 0.2697,-0.4192 0.4049,-0.624c-0.3229,-0.1388 -0.6466,-0.2964 -0.9705,-0.4725zm1.356,0.6294c-0.1291,0.1959 -0.258,0.3948 -0.3867,0.5967c0.2954,0.0849 0.5868,0.1466 0.8743,0.1853c0.0416,-0.0466 0.083,-0.0944 0.1241,-0.1435c0.0366,-0.0439 0.073,-0.0887 0.1091,-0.1345c0.0558,-0.0705 0.1116,-0.1404 0.1675,-0.2101c-0.154,-0.0426 -0.3083,-0.0898 -0.4629,-0.1412c-0.1416,-0.0472 -0.2834,-0.0981 -0.4254,-0.1527zm1.3423,0.4073c-0.086,0.1069 -0.172,0.2146 -0.2579,0.3233l-0.0338,0.0408l-0.0232,0.0278l-0.0233,0.0275c0.1206,0.0045 0.2405,0.0049 0.3597,0.0011c0.0695,-0.0023 0.1388,-0.006 0.2078,-0.0111c0.0258,-0.0019 0.0516,-0.004 0.0773,-0.0063c0.1312,-0.0848 0.2607,-0.1777 0.3887,-0.2792c-0.2309,-0.031 -0.4626,-0.0724 -0.6953,-0.1239zm1.3029,0.182c0.0243,0.0013 0.0486,0.0026 0.0728,0.0037c-0.0233,0.0075 -0.0467,0.0148 -0.0701,0.022l-0.0465,0.0139l0.0438,-0.0396zm2.2733,-42.6308c3.4159,0 6.8884,0.8727 10.0196,2.46412c-3.2834,-1.96011 -7.2177,-3.17644 -11.54,-3.17644c-10.4777,0 -19.00518,8.35372 -19.00518,18.61772c0,3.8854 1.61955,9.4869 4.26378,14.6675c2.3189,4.5165 4.9531,7.9302 7.4379,9.6582c0.0501,-0.1145 0.1003,-0.2281 0.1506,-0.341c0.0617,-0.1385 0.1236,-0.2758 0.1856,-0.4119c-5.959,-4.3814 -10.94717,-15.5124 -10.94717,-22.4396c0,-10.4907 8.72587,-19.0386 19.43487,-19.0386zm-8.3986,42.2849l0.0398,-0.0911c0.07,-0.1596 0.1402,-0.3176 0.2106,-0.4741c0.3139,0.2159 0.6304,0.4127 0.9487,0.5889c-0.1148,0.2195 -0.2293,0.4422 -0.3434,0.6683c-0.3076,-0.1429 -0.6189,-0.3147 -0.9329,-0.5142c0.0257,-0.0595 0.0514,-0.1187 0.0772,-0.1778zm1.3953,0.4801c0.048,-0.0927 0.0961,-0.1847 0.1444,-0.2763c0.3061,0.1538 0.6096,0.2872 0.9105,0.3995c-0.1155,0.1837 -0.2343,0.354 -0.3564,0.5107c-0.2888,-0.0614 -0.5839,-0.1515 -0.8853,-0.2703l0.0653,-0.128c0.0404,-0.079 0.081,-0.1575 0.1215,-0.2356zm1.4504,0.2662l0.0038,-0.0061c0.2458,0.0769 0.4898,0.1391 0.7321,0.1864c-0.0642,0.0576 -0.1291,0.1124 -0.1946,0.1645c-0.0498,0.0396 -0.1001,0.0777 -0.1507,0.1141c-0.2227,0.0136 -0.4495,0.008 -0.6804,-0.0169c0.0989,-0.1384 0.1956,-0.2858 0.2898,-0.442zm1.1786,0.326c0.0232,-0.0222 0.0465,-0.0448 0.0697,-0.0676c0.0378,0.0041 0.0755,0.0078 0.1132,0.0111c-0.0607,0.0204 -0.1216,0.0393 -0.1829,0.0565zm12.0093,-42.46814c-2.9293,-1.28968 -6.0764,-1.9899 -9.1554,-1.9899c-10.709,0 -19.43487,8.54794 -19.43487,19.03864c0,3.9501 1.65262,9.6488 4.29687,14.8617c2.3564,4.6168 5.0763,8.0988 7.6512,9.8556c-0.1044,0.2444 -0.2084,0.4924 -0.3118,0.7442c-5.8727,-3.4502 -12.69398,-18.55 -12.69398,-26.5948c0,-10.264 8.52748,-18.61766 19.00518,-18.61766c3.5366,0 7.2727,0.98085 10.6428,2.70222zm-16.2908,41.99564c-0.0992,0.2351 -0.1978,0.4736 -0.296,0.7156c0.2427,0.123 0.4835,0.2251 0.7217,0.3051c0.0459,0.0152 0.0915,0.0297 0.1371,0.0433c0.0447,-0.0657 0.0889,-0.1337 0.1326,-0.204c0.0417,-0.0671 0.083,-0.1363 0.1238,-0.2076c0.0294,-0.0513 0.0585,-0.1037 0.0874,-0.1571c-0.2993,-0.1396 -0.6017,-0.3051 -0.9066,-0.4953zm1.2611,0.6488c-0.095,0.1826 -0.1932,0.3541 -0.2943,0.5145c0.07,0.0135 0.1396,0.0248 0.2088,0.034c0.0798,0.0107 0.159,0.0186 0.2376,0.0237c0.0829,0.0053 0.1651,0.0076 0.2467,0.0067c0.1233,-0.099 0.2439,-0.2097 0.3617,-0.332c-0.2472,-0.0624 -0.4996,-0.1442 -0.7605,-0.2469zm1.2349,0.344c0.0779,0.0123 0.1555,0.0226 0.2328,0.031c-0.028,0.0108 -0.056,0.0211 -0.0842,0.0311c-0.0379,0.0133 -0.076,0.0259 -0.1143,0.0378c-0.0548,0.0169 -0.1099,0.0322 -0.1654,0.046c0.0441,-0.0471 0.0878,-0.0958 0.1311,-0.1459zm3.119,-46.11159c3.2619,0 6.6937,0.82203 9.8662,2.28207c-3.6101,-1.89276 -7.6205,-2.96205 -11.3536,-2.96205c-10.4777,0 -19.00519,8.35367 -19.00519,18.61767c0,7.8938 7.54099,26.4028 13.68859,28.7839c0.1231,-0.2105 0.2422,-0.4425 0.3574,-0.6957c-2.6852,-1.5384 -5.689,-5.408 -8.36097,-10.9276c-2.80946,-5.731 -4.62735,-12.0448 -4.62735,-16.0597c0,-10.4907 8.72582,-19.03859 19.43492,-19.03859zm-6.4107,46.85219c0.1128,-0.1947 0.2222,-0.405 0.3282,-0.631c0.2458,0.1227 0.4886,0.2251 0.7279,0.3068l0.0356,0.0122c-0.1306,0.159 -0.2651,0.3 -0.4032,0.423c-0.2236,-0.0084 -0.4532,-0.0453 -0.6885,-0.111zm1.3016,0.0597c0.0693,-0.0808 0.1375,-0.1661 0.2045,-0.2558c0.0363,0.0081 0.0725,0.0156 0.1087,0.0226c0.0196,0.0038 0.0391,0.0075 0.0587,0.0109l0.0326,0.0058c0.054,0.0092 0.1078,0.0172 0.1613,0.0242c-0.0996,0.0474 -0.2007,0.088 -0.3033,0.1217c-0.0254,0.0083 -0.0508,0.0162 -0.0764,0.0238c-0.0235,0.0068 -0.0471,0.0134 -0.0707,0.0196c-0.0383,0.01 -0.0767,0.0191 -0.1154,0.0272zm14.811,-45.22886c-3.5678,-1.80382 -7.5158,-2.81628 -11.1893,-2.81628c-10.709,0 -19.43489,8.54794 -19.43489,19.03864c0,4.112 1.88398,10.8791 4.82566,17.1929c4.10003,8.8478 7.45223,11.286 9.07253,11.9708c-0.1356,0.1969 -0.2756,0.3698 -0.42,0.5188c-0.1173,-0.0095 -0.236,-0.0282 -0.3563,-0.0562c-2.6112,-0.6152 -6.0817,-5.3424 -9.28776,-12.66c-2.94168,-6.7348 -4.92483,-13.9875 -4.92483,-18.0673c0,-10.26394 8.52749,-18.61762 19.00519,-18.61762c4.6947,0 9.0589,1.3598 12.7097,3.49626zm-16.3376,45.52986c-0.0838,0.1245 -0.1694,0.2411 -0.2569,0.3496c0.2327,-0.0417 0.4582,-0.123 0.676,-0.2441c-0.0572,-0.0104 -0.1151,-0.0226 -0.1739,-0.0368c-0.0506,-0.0123 -0.1019,-0.026 -0.1539,-0.0413c-0.0294,-0.0084 -0.0598,-0.0176 -0.0913,-0.0274zm3.5949,-49.41465c3.5167,0 7.2709,0.90922 10.73,2.5027c-3.8679,-2.01995 -8.2084,-3.21501 -12.2174,-3.21501c-10.47768,0 -19.0052,8.35368 -19.0052,18.61766c0,4.0797 2.04924,11.9153 5.02396,19.1034c3.27221,7.9327 6.70964,12.9514 9.22164,13.4371c0.5027,0.0957 0.9701,0.0008 1.402,-0.2849l-0.0468,-0.0066c-6.0817,-1.3922 -14.54314,-22.6326 -14.54314,-31.1157c0,-10.49074 8.72584,-19.03865 19.43494,-19.03865z" clip-rule="evenodd" fill-rule="evenodd"/>
 </g>
</svg>